<svg id="Capa_1" enable-background="new 0 0 512 512" height="512" viewBox="0 0 512 512" width="512" xmlns="http://www.w3.org/2000/svg"><g><path d="m200.893 444.063 28.08-65.175h54.054l28.08 65.175z" fill="#e8edf2"/><path d="m292.721 401.388-9.694-22.5h-54.054l-9.694 22.5z" fill="#c5d3dd"/><path d="m477.38 29.946h-442.76c-14.978 0-27.12 12.142-27.12 27.12v294.701c0 14.978 12.142 27.12 27.12 27.12h442.76c14.978 0 27.12-12.142 27.12-27.12v-294.701c0-14.978-12.142-27.12-27.12-27.12z" fill="#0ed2b3"/><path d="m477.38 29.946h-24.17c14.978 0 27.12 12.142 27.12 27.12v294.701c0 14.978-12.142 27.12-27.12 27.12h24.17c14.978 0 27.12-12.142 27.12-27.12v-294.701c0-14.978-12.142-27.12-27.12-27.12z" fill="#01998d"/><path d="m477.38 29.946h-442.76c-14.978 0-27.12 12.142-27.12 27.12v242.93c0 14.978 12.142 27.12 27.12 27.12h442.76c14.978 0 27.12-12.142 27.12-27.12v-242.929c0-14.979-12.142-27.121-27.12-27.121z" fill="#596c76"/><path d="m503.281 49.002c-.925-2.972-2.346-5.725-4.168-8.162-4.946-6.613-12.839-10.894-21.732-10.894h-24.163c14.975.004 27.113 12.144 27.113 27.12v269.888c13.59-1.47 24.17-12.976 24.17-26.958v-242.929c-.001-2.809-.428-5.517-1.22-8.065z" fill="#465a61"/><path d="m329.617 444.063h-147.234c-13.733 0-24.866 11.133-24.866 24.866v4.866c0 4.561 3.698 8.259 8.259 8.259h180.448c4.561 0 8.259-3.698 8.259-8.259v-4.866c0-13.733-11.133-24.866-24.866-24.866z" fill="#0ed2b3"/><path d="m329.617 444.063h-23.166c13.733 0 24.865 11.133 24.865 24.865v4.866c0 4.561-3.698 8.259-8.259 8.259h23.166c4.561 0 8.259-3.698 8.259-8.259v-4.866c.001-13.732-11.132-24.865-24.865-24.865z" fill="#01998d"/><g><path d="m37.855 89.387v178.289c0 8.284 6.716 15 15 15h178.289c8.284 0 15-6.716 15-15v-178.289c0-8.284-6.716-15-15-15h-178.289c-8.284 0-15 6.716-15 15z" fill="#01c0fa"/><path d="m231.145 74.387h-22.5c8.284 0 15 6.716 15 15v178.289c0 8.284-6.716 15-15 15h22.5c8.284 0 15-6.716 15-15v-178.289c0-8.284-6.716-15-15-15z" fill="#0290cf"/><path d="m168.478 122.331c-.792 0-1.575.043-2.346.124-.885.093-1.616-.639-1.523-1.523.081-.771.124-1.553.124-2.346 0-12.555-10.178-22.733-22.733-22.733s-22.733 10.178-22.733 22.733c0 .792.043 1.575.124 2.346.093.885-.639 1.616-1.523 1.523-.771-.081-1.553-.124-2.346-.124-12.555 0-22.733 10.178-22.733 22.733s10.178 22.733 22.733 22.733c.792 0 1.575-.043 2.346-.124.885-.093 1.616.639 1.524 1.523-.081.771-.124 1.553-.124 2.346 0 12.555 10.178 22.733 22.733 22.733s22.733-10.178 22.733-22.733c0-.792-.043-1.575-.124-2.346-.093-.885.639-1.616 1.524-1.523.771.081 1.553.124 2.346.124 12.555 0 22.733-10.178 22.733-22.733-.001-12.556-10.18-22.733-22.735-22.733z" fill="#fedf30"/><circle cx="142" cy="145.064" fill="#f8f6f6" r="14.305"/><g fill="#5de1c4"><ellipse cx="117.153" cy="228.635" rx="17.1" ry="28.677" transform="matrix(.5 -.866 .866 .5 -139.427 215.775)"/><ellipse cx="166.847" cy="228.635" rx="28.677" ry="17.1" transform="matrix(.866 -.5 .5 .866 -91.964 114.055)"/></g></g><g><path d="m297.067 79.487v77.133c0 9.048 7.335 16.383 16.383 16.383h114.407c9.048 0 16.383-7.335 16.383-16.383v-77.133c0-9.048-7.335-16.383-16.383-16.383h-114.407c-9.048 0-16.383 7.335-16.383 16.383z" fill="#b3dafe"/><g fill="#f5f8f9"><circle cx="331.538" cy="219.483" r="16.962"/><circle cx="387.616" cy="276.997" r="16.962"/></g></g><g><path d="m477.38 22.446h-442.76c-19.09 0-34.62 15.531-34.62 34.62v294.701c0 19.09 15.53 34.62 34.62 34.62h59.38c4.142 0 7.5-3.357 7.5-7.5s-3.358-7.5-7.5-7.5h-59.38c-10.818 0-19.62-8.802-19.62-19.62v-23.267c5.581 3.854 12.34 6.118 19.62 6.118h442.76c7.28 0 14.039-2.264 19.62-6.118v23.268c0 10.818-8.802 19.62-19.62 19.62h-194.362c-.025 0-.051 0-.076 0h-53.881c-.027 0-.054 0-.081 0h-104.98c-4.142 0-7.5 3.357-7.5 7.5s3.358 7.5 7.5 7.5h93.576l-21.618 50.176h-13.575c-17.846 0-32.365 14.519-32.365 32.365v4.866c0 8.689 7.069 15.759 15.759 15.759h180.448c8.689 0 15.759-7.069 15.759-15.759v-4.866c0-17.847-14.519-32.365-32.365-32.365h-13.575l-21.618-50.176h182.954c19.09 0 34.62-15.53 34.62-34.62v-294.702c0-19.089-15.53-34.62-34.62-34.62zm-130.397 446.483v4.866c0 .418-.34.759-.759.759h-180.448c-.418 0-.759-.341-.759-.759v-4.866c0-9.575 7.79-17.365 17.365-17.365h18.468c.013 0 .026.002.039.002.009 0 .018-.002.027-.002h110.168c.009 0 .018.002.027.002.013 0 .026-.002.039-.002h18.468c9.575-.001 17.365 7.79 17.365 17.365zm-47.273-32.366h-87.42l21.618-50.176h44.185zm177.67-116.946h-442.76c-10.818 0-19.62-8.802-19.62-19.62v-242.931c0-10.818 8.802-19.62 19.62-19.62h442.76c10.818 0 19.62 8.802 19.62 19.62v242.931c0 10.818-8.802 19.62-19.62 19.62z"/><path d="m163.805 145.063c0-12.023-9.782-21.806-21.805-21.806s-21.805 9.782-21.805 21.806 9.782 21.806 21.805 21.806 21.805-9.782 21.805-21.806zm-28.61 0c0-3.753 3.053-6.806 6.805-6.806s6.805 3.053 6.805 6.806-3.053 6.806-6.805 6.806-6.805-3.053-6.805-6.806z"/><path d="m231.145 66.887h-178.29c-12.407 0-22.5 10.094-22.5 22.5v178.289c0 12.406 10.093 22.5 22.5 22.5h178.289c12.407 0 22.5-10.094 22.5-22.5v-178.289c.001-12.407-10.093-22.5-22.499-22.5zm7.5 200.789c0 4.136-3.364 7.5-7.5 7.5h-81.645v-21.053c3.154.779 6.377 1.192 9.605 1.192 6.912 0 13.83-1.789 20.042-5.375 12.763-7.369 20.438-21.106 20.032-35.851-.07-2.531-1.412-4.856-3.569-6.183-12.566-7.725-28.301-7.945-41.063-.576-1.789 1.033-3.466 2.203-5.047 3.472v-9.976c11.941-3.06 21.059-13.242 22.526-25.736 15.005-1.761 26.686-14.556 26.686-30.026s-11.68-28.265-26.686-30.025c-1.761-15.006-14.555-26.686-30.026-26.686s-28.265 11.68-30.026 26.686c-15.006 1.761-26.686 14.555-26.686 30.025s11.68 28.266 26.686 30.026c1.466 12.495 10.585 22.676 22.526 25.736v9.976c-1.581-1.269-3.258-2.438-5.047-3.472-12.763-7.368-28.497-7.147-41.063.576-2.157 1.326-3.5 3.651-3.569 6.183-.407 14.744 7.269 28.481 20.032 35.851 6.213 3.587 13.129 5.375 20.042 5.375 3.228 0 6.451-.413 9.605-1.192v21.053h-81.645c-4.136 0-7.5-3.364-7.5-7.5v-178.289c0-4.136 3.364-7.5 7.5-7.5h178.289c4.136 0 7.5 3.364 7.5 7.5v178.289zm-114.347-104.911c-1.679-1.679-3.923-2.601-6.272-2.601-.313 0-.628.017-.943.05-9.104.951-16.794-6.238-16.794-15.15 0-8.399 6.833-15.232 15.233-15.232.519 0 1.044.027 1.563.082 2.688.288 5.312-.647 7.214-2.551 1.903-1.902 2.833-4.532 2.551-7.216-.055-.521-.083-1.045-.083-1.562 0-8.399 6.833-15.232 15.233-15.232s15.233 6.833 15.233 15.232c0 .517-.028 1.041-.083 1.563-.281 2.682.648 5.312 2.551 7.214 1.902 1.903 4.535 2.836 7.215 2.551.517-.055 1.042-.082 1.562-.082 8.399 0 15.233 6.833 15.233 15.232 0 8.912-7.673 16.097-16.796 15.15-2.681-.277-5.312.649-7.214 2.551-1.903 1.902-2.833 4.532-2.551 7.215.055.521.083 1.047.083 1.563 0 8.399-6.833 15.233-15.233 15.233s-15.233-6.834-15.233-15.233c0-.516.028-1.041.083-1.563.281-2.682-.649-5.312-2.552-7.214zm25.454 75.74c1.079-7.558 5.553-14.292 12.295-18.185 6.741-3.892 14.81-4.4 21.895-1.556-1.079 7.558-5.553 14.292-12.294 18.185-6.741 3.892-14.81 4.399-21.896 1.556zm-15.504 0c-7.084 2.844-15.153 2.337-21.895-1.556s-11.216-10.627-12.294-18.185c7.084-2.844 15.153-2.336 21.895 1.556 6.74 3.893 11.214 10.627 12.294 18.185z"/><path d="m313.451 180.503h114.406c13.169 0 23.883-10.714 23.883-23.884v-77.133c0-13.169-10.714-23.883-23.883-23.883h-114.406c-13.169 0-23.883 10.714-23.883 23.883v77.133c-.001 13.17 10.713 23.884 23.883 23.884zm-8.884-101.017c0-4.898 3.985-8.883 8.883-8.883h114.406c4.898 0 8.883 3.984 8.883 8.883v77.133c0 4.898-3.985 8.884-8.883 8.884h-114.405c-4.898 0-8.883-3.985-8.883-8.884v-77.133z"/><path d="m323.404 136.123c4.564-3.968 7.797-9.104 10.923-14.071 5.245-8.335 8.774-13.442 14.987-13.442 4.049 0 6.939.649 14.994 13.442 5.735 9.108 12.872 20.444 27.676 20.444 14.809 0 21.947-11.334 27.683-20.44 2.665-4.23 5.182-8.227 8.078-10.744 3.126-2.717 3.458-7.454.74-10.58-2.717-3.127-7.454-3.458-10.581-.74-4.567 3.97-7.801 9.104-10.929 14.07-5.246 8.329-8.777 13.435-14.991 13.435-4.044 0-6.932-.649-14.982-13.437-5.736-9.111-12.875-20.45-27.688-20.45-14.811 0-21.948 11.341-27.682 20.453-2.663 4.23-5.177 8.227-8.068 10.74-3.126 2.717-3.458 7.454-.74 10.581 2.717 3.125 7.454 3.457 10.58.739z"/><path d="m445.37 269.499h-34.472c-3.174-9.831-12.409-16.964-23.282-16.964-10.874 0-20.109 7.133-23.284 16.964h-68.392c-4.142 0-7.5 3.357-7.5 7.5s3.358 7.5 7.5 7.5h68.393c3.175 9.83 12.41 16.961 23.283 16.961s20.107-7.131 23.282-16.961h34.472c4.142 0 7.5-3.357 7.5-7.5s-3.358-7.5-7.5-7.5zm-57.754 16.961c-5.219 0-9.464-4.244-9.464-9.461 0-5.219 4.246-9.464 9.464-9.464s9.463 4.245 9.463 9.464c0 5.217-4.245 9.461-9.463 9.461z"/><path d="m445.37 211.98h-90.551c-3.175-9.829-12.409-16.96-23.281-16.96-10.871 0-20.105 7.131-23.279 16.96h-12.319c-4.142 0-7.5 3.357-7.5 7.5s3.358 7.5 7.5 7.5h12.318c3.174 9.832 12.407 16.965 23.28 16.965s20.108-7.133 23.282-16.965h90.551c4.142 0 7.5-3.357 7.5-7.5s-3.359-7.5-7.501-7.5zm-113.832 16.965c-5.216 0-9.46-4.246-9.46-9.465 0-5.216 4.244-9.46 9.46-9.46 5.218 0 9.462 4.244 9.462 9.46 0 5.219-4.245 9.465-9.462 9.465z"/></g></g></svg>